PathFileType	4	(X/Y/Z)	s06c0201.trc
DataRate	CameraRate	NumFrames	NumMarkers	Units	OrigDataRate	OrigDataStartFrame	OrigNumFrames
200	200	5	49	mm	200	1250	2000
Frame#	Time	racr			lacr			c7			jug			rlel			rdr			llel			ldr			s2			lic			ric			lasi			rasi			rpsi			lpsi			rgt			lgt			rth1			rth2			rth3			rth4			rlfc			rmfc			rsh1			rsh2			rsh3			rsh4			rlmal			rmmal			rcal			rtoe			rmt5			lth1			lth2			lth4			lth3			llfc			lmfc			llmal			lcal			lmt5			lsh1			lsh2			lsh3			lsh4			ltoe			SBIKE			LBIKE			RBIKE			
		X1	Y1	Z1	X2	Y2	Z2	X3	Y3	Z3	X4	Y4	Z4	X5	Y5	Z5	X6	Y6	Z6	X7	Y7	Z7	X8	Y8	Z8	X9	Y9	Z9	X10	Y10	Z10	X11	Y11	Z11	X12	Y12	Z12	X13	Y13	Z13	X14	Y14	Z14	X15	Y15	Z15	X16	Y16	Z16	X17	Y17	Z17	X18	Y18	Z18	X19	Y19	Z19	X20	Y20	Z20	X21	Y21	Z21	X22	Y22	Z22	X23	Y23	Z23	X24	Y24	Z24	X25	Y25	Z25	X26	Y26	Z26	X27	Y27	Z27	X28	Y28	Z28	X29	Y29	Z29	X30	Y30	Z30	X31	Y31	Z31	X32	Y32	Z32	X33	Y33	Z33	X34	Y34	Z34	X35	Y35	Z35	X36	Y36	Z36	X37	Y37	Z37	X38	Y38	Z38	X39	Y39	Z39	X40	Y40	Z40	X41	Y41	Z41	X42	Y42	Z42	X43	Y43	Z43	X44	Y44	Z44	X45	Y45	Z45	X46	Y46	Z46	X47	Y47	Z47	X48	Y48	Z48	X49	Y49	Z49	
1250	6.2500	530.444534	1232.023535	-86.328620	519.416202	1208.754749	-401.959995	527.117430	1321.871973	-245.268816	502.858241	1149.271166	-235.322418	483.637320	1009.321852	65.162340	646.144029	919.190936	-63.178943	435.610277	969.010995	-502.589459	636.480510	919.909486	-422.161474	-14.437797	1130.198768	-200.617801	133.347128	1111.119906	-383.362654	135.296929	1110.088620	-47.611054	168.221419	1065.744075	-346.310516	166.520747	1073.768244	-87.369263	18.447228	1175.887550	-175.208502	11.663511	1169.689559	-236.328215	120.141634	1031.278396	-11.120898	117.317173	1032.797665	-406.147690	228.329072	970.250887	-15.758000	313.808982	941.636404	-26.656374	371.067007	876.836978	-34.655983	329.902204	971.601530	-43.073845	416.618581	792.935305	-64.975750	399.220331	777.929702	-176.851804	332.343856	705.673772	-42.471617	274.862502	644.054098	-65.356298	192.970663	611.156459	-64.504465	287.981103	633.383041	-101.274711	118.787742	578.907164	-67.844538	145.011612	552.741564	-156.041013	58.161414	607.620628	-114.879207	192.095599	365.691868	-104.363321	123.335897	439.814723	-39.079764	167.712676	913.712889	-427.361991	232.011178	855.679485	-421.805775	262.360878	875.232778	-412.298676	258.978790	770.429252	-415.160784	295.497143	656.758383	-399.334895	302.677506	637.727609	-288.556853	235.250640	289.634733	-386.139061	164.707454	270.593486	-337.823802	350.764436	205.110966	-411.189992	278.739680	549.162546	-419.915145	286.708427	464.526091	-400.774545	252.036320	384.388304	-401.736876	315.129227	464.487305	-372.743356	437.197394	200.777046	-353.000914	-204.202654	867.691516	-220.338307	-50.237454	79.617699	-419.947710	-50.274189	79.485267	-22.607967	
1251	6.2550	530.596361	1233.433979	-85.238501	520.558476	1210.939841	-400.796893	528.503861	1323.467518	-244.186822	502.214082	1149.743331	-236.223368	484.201920	1010.022388	64.573741	646.911619	919.725393	-63.595138	436.968058	971.605802	-502.618301	637.382437	920.395242	-422.200780	-13.952364	1132.054392	-202.539136	135.054746	1113.333688	-383.864765	134.237785	1112.664328	-48.558571	169.604713	1067.703048	-346.262300	165.345726	1075.585083	-87.732572	18.681225	1177.889040	-177.216973	12.674444	1171.508410	-238.462310	119.487066	1035.804842	-11.236244	118.299175	1033.282986	-406.841730	228.639572	976.304058	-15.584280	314.717641	949.863969	-26.431608	372.946513	885.128592	-35.853966	329.872650	979.798783	-43.611736	421.875840	802.704458	-64.619112	404.692073	787.708108	-176.929446	337.817319	714.783357	-42.555298	280.498294	653.089591	-65.482652	198.731764	619.719595	-64.600568	292.326966	641.515163	-102.245124	124.314213	587.010154	-68.144488	150.550301	561.053972	-156.531543	63.042778	614.797999	-115.249015	200.601761	374.925748	-104.666202	130.910197	448.204106	-39.266987	165.191465	912.862776	-428.412275	227.996431	853.141315	-423.603160	258.873936	871.874941	-414.499702	252.827410	767.193549	-417.139559	287.450984	652.738376	-401.338520	295.297058	633.847888	-290.335693	230.235249	285.206776	-386.874106	160.069547	268.220930	-338.591555	344.393742	197.033450	-411.262565	271.396829	545.006350	-421.667805	279.934928	460.408253	-402.579860	245.654542	380.093303	-403.200701	308.601804	460.499295	-374.825620	430.477573	190.422331	-352.790572	-204.219848	867.818976	-220.546193	-50.254484	79.702294	-419.997007	-50.318703	79.855209	-22.372755	
1252	6.2600	530.692077	1234.885364	-84.279304	521.962293	1213.050588	-400.066016	529.860737	1325.017225	-243.061547	503.389307	1151.278809	-234.735024	484.859093	1010.550665	63.983296	647.632698	920.375232	-63.872916	438.468523	974.156753	-502.508678	638.363754	920.857001	-422.290484	-14.194755	1133.644665	-204.062647	136.666226	1115.573140	-384.585457	133.240940	1115.187884	-49.521296	170.916185	1069.523467	-346.424236	164.341039	1077.421946	-88.070886	19.392988	1179.856568	-179.302189	13.673517	1173.481522	-240.501276	118.833011	1040.358235	-11.638543	119.193163	1034.034054	-407.572725	228.684736	982.303447	-16.269152	315.357358	957.820407	-27.009746	374.766950	896.597412	-32.016069	329.492326	988.269766	-45.008527	426.710960	812.831647	-64.533560	409.602327	797.732791	-176.951619	343.074834	723.781370	-42.453881	286.109104	661.834286	-65.408110	204.899457	627.726080	-64.759435	298.127096	650.300143	-102.195148	129.967493	594.680096	-68.364494	156.864144	569.308978	-156.519087	67.162122	621.107435	-116.360696	210.044519	384.069446	-104.685668	139.074244	456.013881	-39.378943	162.430694	912.333938	-429.260416	223.699096	850.988502	-425.316182	255.129141	868.802140	-416.552509	246.143940	764.295278	-418.924027	279.366834	649.277280	-403.785022	287.732530	630.564535	-291.942308	225.057456	280.998519	-387.078160	155.268666	266.375679	-339.239829	337.546109	189.405041	-411.394332	263.891591	541.246309	-423.262548	273.093573	456.926744	-404.662065	239.010624	376.207153	-404.494198	302.012490	457.233904	-377.525485	423.292208	180.350842	-352.571693	-204.223032	867.889984	-220.623899	-50.274659	79.756464	-420.034728	-50.288257	79.963443	-22.372339	
1253	6.2650	530.824684	1236.163341	-83.327020	523.297224	1214.929035	-398.718249	531.057615	1326.390336	-241.895415	504.717609	1152.823360	-233.995183	485.380859	1011.410584	63.575708	648.288754	921.074834	-64.235223	440.089087	976.666074	-502.331542	639.430354	921.489177	-422.360936	-13.016666	1135.723329	-206.031469	139.360985	1118.343048	-385.077821	132.955688	1118.199224	-49.707600	172.044259	1071.305520	-346.873668	164.573254	1080.493823	-87.925071	18.965786	1182.002641	-180.959987	15.045681	1175.005673	-241.835694	118.677386	1044.878555	-12.841956	120.028800	1034.862859	-408.182582	228.722093	988.769684	-17.035148	315.915461	966.223693	-27.642487	377.538447	906.471953	-32.167356	329.251373	996.645119	-46.434780	431.420270	822.779538	-64.217427	414.575908	806.980730	-176.925565	348.214068	732.856511	-42.243496	291.703579	670.447257	-65.248227	210.681582	635.825405	-64.640107	303.921980	658.785987	-101.954100	135.759039	601.807113	-68.456714	163.077796	576.959269	-156.572281	73.226443	627.420830	-115.752085	220.841127	393.823255	-104.279094	146.965771	463.323294	-39.863667	159.524118	912.073777	-430.114643	219.292186	848.984543	-426.832882	251.149658	866.170021	-418.715547	239.558058	761.863810	-420.639913	271.225443	646.054611	-405.575236	280.121237	627.590176	-293.274193	219.677461	277.655254	-387.732422	150.229886	265.136281	-339.907940	330.411541	182.644613	-411.993280	256.169381	537.929121	-424.877551	265.959271	453.656188	-406.344922	232.457035	372.766031	-405.440166	295.230196	454.176494	-379.577294	415.614294	170.720011	-352.181779	-204.238212	867.981305	-220.733743	-50.261302	79.780350	-420.026379	-50.287302	80.014686	-22.388174	
1254	6.2700	530.958605	1237.600341	-82.415173	524.665764	1216.680843	-397.264739	532.016072	1327.584518	-240.578440	505.659634	1154.492446	-232.389461	485.817250	1012.127659	63.171981	648.776410	921.801822	-64.506741	441.672588	979.205788	-502.197808	640.526736	922.135356	-422.447391	-12.040796	1137.709834	-207.802578	140.993544	1120.414946	-385.497481	132.086062	1120.595841	-50.767601	172.985271	1073.070969	-347.224512	163.540232	1082.220621	-88.481192	19.821660	1184.282947	-182.696287	16.090166	1177.027865	-243.627110	118.574245	1049.851492	-13.529091	120.705586	1035.980657	-409.095567	228.710530	995.449151	-18.007400	316.385410	974.696431	-28.399130	378.816913	916.115345	-31.844462	329.151499	1004.962504	-47.828751	435.677783	832.439796	-63.867923	419.339547	816.078849	-176.699901	353.266629	741.623388	-42.141597	297.265237	679.205922	-64.600689	216.529677	643.670587	-64.402885	309.853820	666.996345	-101.358745	141.599558	608.320785	-68.450548	169.325416	584.083783	-156.584423	78.418990	632.634626	-115.876469	230.415758	401.847956	-104.722034	155.578177	469.832990	-40.182283	156.569324	911.979083	-431.092183	214.742933	847.366118	-428.419982	247.085060	863.763831	-420.831504	232.959558	760.007824	-422.740280	263.153780	643.151519	-407.236217	272.597511	625.062672	-294.450066	214.114473	274.861772	-388.373373	145.026170	264.416061	-340.744312	322.958828	175.961622	-411.978649	248.244288	534.865504	-425.989817	258.755123	450.848385	-407.890446	225.688977	369.785589	-406.375024	288.247457	451.528014	-381.441439	407.461246	161.681227	-351.882208	-204.257428	867.990878	-220.790208	-50.220795	79.573934	-419.749821	-50.263436	80.068261	-22.391867	
